# 3ds Max Wavefront OBJ Exporter v0.97b - (c)2007 guruware
# File Created: 29.03.2019 00:38:19

#
# object Box001
#

v  -250.0000 -250.0000 250.0000
v  250.0000 -250.0000 250.0000
v  -250.0000 -250.0000 -250.0000
v  250.0000 -250.0000 -250.0000
v  -250.0000 250.0000 250.0000
v  250.0000 250.0000 250.0000
v  -250.0000 250.0000 -250.0000
v  250.0000 250.0000 -250.0000
# 8 vertices

vn 0.0000 1.0000 -0.0000
vn 0.0000 1.0000 -0.0000
vn 0.0000 1.0000 -0.0000
vn 0.0000 1.0000 -0.0000
vn 0.0000 1.0000 -0.0000
vn 0.0000 1.0000 -0.0000
vn 0.0000 -1.0000 -0.0000
vn 0.0000 -1.0000 -0.0000
vn 0.0000 -1.0000 -0.0000
vn 0.0000 -1.0000 -0.0000
vn 0.0000 -1.0000 -0.0000
vn 0.0000 -1.0000 -0.0000
vn 0.0000 0.0000 -1.0000
vn 0.0000 0.0000 -1.0000
vn 0.0000 0.0000 -1.0000
vn 0.0000 0.0000 -1.0000
vn 0.0000 0.0000 -1.0000
vn 0.0000 0.0000 -1.0000
vn -1.0000 0.0000 -0.0000
vn -1.0000 0.0000 -0.0000
vn -1.0000 0.0000 -0.0000
vn -1.0000 0.0000 -0.0000
vn -1.0000 0.0000 -0.0000
vn -1.0000 0.0000 -0.0000
vn 0.0000 0.0000 1.0000
vn 0.0000 0.0000 1.0000
vn 0.0000 0.0000 1.0000
vn 0.0000 0.0000 1.0000
vn 0.0000 0.0000 1.0000
vn 0.0000 0.0000 1.0000
vn 1.0000 0.0000 -0.0000
vn 1.0000 0.0000 -0.0000
vn 1.0000 0.0000 -0.0000
vn 1.0000 0.0000 -0.0000
vn 1.0000 0.0000 -0.0000
vn 1.0000 0.0000 -0.0000
# 36 vertex normals

vt 0.4953 0.2656 0.0000
vt 0.2528 0.2656 0.0000
vt 0.4953 0.5081 0.0000
vt 0.2528 0.5081 0.0000
vt 0.2528 0.7511 0.0000
vt 0.4953 0.7511 0.0000
vt 0.2528 0.9936 0.0000
vt 0.4953 0.9936 0.0000
vt 0.5041 0.5084 0.0000
vt 0.7466 0.5084 0.0000
vt 0.5041 0.7509 0.0000
vt 0.7466 0.7509 0.0000
vt 0.7547 0.5084 0.0000
vt 0.9972 0.5084 0.0000
vt 0.7547 0.7509 0.0000
vt 0.9972 0.7509 0.0000
vt 0.0016 0.5084 0.0000
vt 0.2441 0.5084 0.0000
vt 0.0016 0.7509 0.0000
vt 0.2441 0.7509 0.0000
vt 0.2528 0.5084 0.0000
vt 0.4953 0.5084 0.0000
vt 0.2528 0.7509 0.0000
vt 0.4953 0.7509 0.0000
# 24 texture coords

o Box001
g Box001
f 1/1/1 2/2/2 4/4/3 
f 4/4/4 3/3/5 1/1/6 
f 5/5/7 7/7/8 8/8/9 
f 8/8/10 6/6/11 5/5/12 
f 1/9/13 5/11/14 6/12/15 
f 6/12/16 2/10/17 1/9/18 
f 2/13/19 6/15/20 8/16/21 
f 8/16/22 4/14/23 2/13/24 
f 4/17/25 8/19/26 7/20/27 
f 7/20/28 3/18/29 4/17/30 
f 3/21/31 7/23/32 5/24/33 
f 5/24/34 1/22/35 3/21/36 
# 12 faces

