# 3ds Max Wavefront OBJ Exporter v0.97b - (c)2007 guruware
# File Created: 28.03.2019 10:15:29

#
# object Box001
#

v  -139.2050 0.0000 831.9384
v  -0.0001 0.0000 831.9384
v  -139.2050 0.0000 -831.9384
v  -0.0001 0.0000 -831.9384
v  -0.0001 30.0000 831.9384
v  139.2049 30.0000 831.9384
v  139.2049 30.0000 -831.9384
v  -0.0001 30.0000 -831.9384
v  139.2049 60.0000 831.9384
v  278.4099 60.0000 831.9384
v  278.4099 60.0000 -831.9384
v  139.2049 60.0000 -831.9384
v  278.4099 90.0000 831.9384
v  417.6149 90.0000 831.9384
v  417.6149 90.0000 -831.9384
v  278.4099 90.0000 -831.9384
v  417.6149 120.0000 831.9384
v  556.8198 120.0000 831.9384
v  556.8198 120.0000 -831.9384
v  417.6149 120.0000 -831.9384
v  556.8198 150.0000 831.9384
v  696.0248 150.0000 831.9384
v  696.0248 150.0000 -831.9384
v  556.8198 150.0000 -831.9384
v  696.0248 180.0000 831.9384
v  835.2299 180.0000 831.9384
v  835.2299 180.0000 -831.9384
v  696.0248 180.0000 -831.9384
v  -278.4100 -30.0000 831.9384
v  -139.2050 -30.0000 831.9384
v  -139.2050 -30.0000 -831.9384
v  -278.4100 -30.0000 -831.9384
v  -417.6150 -60.0000 831.9384
v  -278.4100 -60.0000 831.9384
v  -278.4100 -60.0000 -831.9384
v  -417.6150 -60.0000 -831.9384
v  -556.8199 -90.0000 831.9384
v  -417.6150 -90.0000 831.9384
v  -417.6150 -90.0000 -831.9384
v  -556.8199 -90.0000 -831.9384
v  -696.0250 -120.0000 831.9384
v  -556.8199 -120.0000 831.9384
v  -556.8199 -120.0000 -831.9384
v  -696.0250 -120.0000 -831.9384
v  -835.2299 -150.0000 831.9384
v  -696.0250 -150.0000 831.9384
v  -696.0250 -150.0000 -831.9384
v  -835.2299 -150.0000 -831.9384
# 48 vertices

vn 0.0000 1.0000 -0.0000
vn 0.0000 1.0000 -0.0000
vn 0.0000 1.0000 -0.0000
vn 0.0000 1.0000 -0.0000
vn 0.0000 1.0000 -0.0000
vn 0.0000 1.0000 -0.0000
vn 0.0000 1.0000 -0.0000
vn 0.0000 1.0000 -0.0000
vn 0.0000 1.0000 -0.0000
vn 0.0000 1.0000 -0.0000
vn 0.0000 1.0000 -0.0000
vn 0.0000 1.0000 -0.0000
vn 0.0000 1.0000 -0.0000
vn 0.0000 1.0000 -0.0000
vn 0.0000 1.0000 -0.0000
vn 0.0000 1.0000 -0.0000
vn 0.0000 1.0000 -0.0000
vn 0.0000 1.0000 -0.0000
vn 0.0000 1.0000 -0.0000
vn 0.0000 1.0000 -0.0000
vn 0.0000 1.0000 -0.0000
vn 0.0000 1.0000 -0.0000
vn 0.0000 1.0000 -0.0000
vn 0.0000 1.0000 -0.0000
vn 0.0000 1.0000 -0.0000
vn 0.0000 1.0000 -0.0000
vn 0.0000 1.0000 -0.0000
vn 0.0000 1.0000 -0.0000
vn 0.0000 1.0000 -0.0000
vn 0.0000 1.0000 -0.0000
vn 0.0000 1.0000 -0.0000
vn 0.0000 1.0000 -0.0000
vn 0.0000 1.0000 -0.0000
vn 0.0000 1.0000 -0.0000
vn 0.0000 1.0000 -0.0000
vn 0.0000 1.0000 -0.0000
vn 0.0000 1.0000 -0.0000
vn 0.0000 1.0000 -0.0000
vn 0.0000 1.0000 -0.0000
vn 0.0000 1.0000 -0.0000
vn 0.0000 1.0000 -0.0000
vn 0.0000 1.0000 -0.0000
vn 0.0000 1.0000 -0.0000
vn 0.0000 1.0000 -0.0000
vn 0.0000 1.0000 -0.0000
vn 0.0000 1.0000 -0.0000
vn 0.0000 1.0000 -0.0000
vn 0.0000 1.0000 -0.0000
vn 0.0000 1.0000 -0.0000
vn 0.0000 1.0000 -0.0000
vn 0.0000 1.0000 -0.0000
vn 0.0000 1.0000 -0.0000
vn 0.0000 1.0000 -0.0000
vn 0.0000 1.0000 -0.0000
vn 0.0000 1.0000 -0.0000
vn 0.0000 1.0000 -0.0000
vn 0.0000 1.0000 -0.0000
vn 0.0000 1.0000 -0.0000
vn 0.0000 1.0000 -0.0000
vn 0.0000 1.0000 -0.0000
vn 0.0000 1.0000 -0.0000
vn 0.0000 1.0000 -0.0000
vn 0.0000 1.0000 -0.0000
vn 0.0000 1.0000 -0.0000
vn 0.0000 1.0000 -0.0000
vn 0.0000 1.0000 -0.0000
vn 0.0000 1.0000 -0.0000
vn 0.0000 1.0000 -0.0000
vn 0.0000 1.0000 -0.0000
vn 0.0000 1.0000 -0.0000
vn 0.0000 1.0000 -0.0000
vn 0.0000 1.0000 -0.0000
# 72 vertex normals

vt 0.4167 0.0000 0.0000
vt 0.5000 0.0000 0.0000
vt 0.4167 1.0000 0.0000
vt 0.5000 1.0000 0.0000
vt 0.5000 0.0000 0.0000
vt 0.5833 0.0000 0.0000
vt 0.5833 1.0000 0.0000
vt 0.5000 1.0000 0.0000
vt 0.5833 0.0000 0.0000
vt 0.6667 0.0000 0.0000
vt 0.6667 1.0000 0.0000
vt 0.5833 1.0000 0.0000
vt 0.6667 0.0000 0.0000
vt 0.7500 0.0000 0.0000
vt 0.7500 1.0000 0.0000
vt 0.6667 1.0000 0.0000
vt 0.7500 0.0000 0.0000
vt 0.8333 0.0000 0.0000
vt 0.8333 1.0000 0.0000
vt 0.7500 1.0000 0.0000
vt 0.8333 0.0000 0.0000
vt 0.9167 0.0000 0.0000
vt 0.9167 1.0000 0.0000
vt 0.8333 1.0000 0.0000
vt 0.9167 0.0000 0.0000
vt 1.0000 0.0000 0.0000
vt 1.0000 1.0000 0.0000
vt 0.9167 1.0000 0.0000
vt 0.3333 0.0000 0.0000
vt 0.4167 0.0000 0.0000
vt 0.4167 1.0000 0.0000
vt 0.3333 1.0000 0.0000
vt 0.2500 0.0000 0.0000
vt 0.3333 0.0000 0.0000
vt 0.3333 1.0000 0.0000
vt 0.2500 1.0000 0.0000
vt 0.1667 0.0000 0.0000
vt 0.2500 0.0000 0.0000
vt 0.2500 1.0000 0.0000
vt 0.1667 1.0000 0.0000
vt 0.0833 0.0000 0.0000
vt 0.1667 0.0000 0.0000
vt 0.1667 1.0000 0.0000
vt 0.0833 1.0000 0.0000
vt 0.0000 0.0000 0.0000
vt 0.0833 0.0000 0.0000
vt 0.0833 1.0000 0.0000
vt 0.0000 1.0000 0.0000
# 48 texture coords

o Box001
g Box001
f 1/1/1 2/2/2 4/4/3 
f 4/4/4 3/3/5 1/1/6 
f 5/5/7 6/6/8 7/7/9 
f 7/7/10 8/8/11 5/5/12 
f 9/9/13 10/10/14 11/11/15 
f 11/11/16 12/12/17 9/9/18 
f 13/13/19 14/14/20 15/15/21 
f 15/15/22 16/16/23 13/13/24 
f 17/17/25 18/18/26 19/19/27 
f 19/19/28 20/20/29 17/17/30 
f 21/21/31 22/22/32 23/23/33 
f 23/23/34 24/24/35 21/21/36 
f 25/25/37 26/26/38 27/27/39 
f 27/27/40 28/28/41 25/25/42 
f 29/29/43 30/30/44 31/31/45 
f 31/31/46 32/32/47 29/29/48 
f 33/33/49 34/34/50 35/35/51 
f 35/35/52 36/36/53 33/33/54 
f 37/37/55 38/38/56 39/39/57 
f 39/39/58 40/40/59 37/37/60 
f 41/41/61 42/42/62 43/43/63 
f 43/43/64 44/44/65 41/41/66 
f 45/45/67 46/46/68 47/47/69 
f 47/47/70 48/48/71 45/45/72 
# 24 faces

